<mxfile host="65bd71144e" scale="4" border="0">
    <diagram id="zcjRhHv8CTLXdRoGBuVu" name="Page-1">
        <mxGraphModel dx="359" dy="295" grid="1" gridSize="10" guides="1" tooltips="1" connect="1" arrows="1" fold="1" page="1" pageScale="1" pageWidth="583" pageHeight="827" math="1" shadow="0">
            <root>
                <mxCell id="0"/>
                <mxCell id="1" parent="0"/>
                <mxCell id="2" value="" style="whiteSpace=wrap;html=1;fillColor=#d5e8d4;strokeColor=#82b366;sketch=1;" vertex="1" parent="1">
                    <mxGeometry x="80" y="80" width="440" height="20" as="geometry"/>
                </mxCell>
                <mxCell id="3" value="&lt;font face=&quot;Courier New&quot;&gt;0&lt;/font&gt;" style="text;html=1;align=center;verticalAlign=middle;resizable=0;points=[];autosize=1;strokeColor=none;fillColor=none;sketch=1;" vertex="1" parent="1">
                    <mxGeometry x="80" y="60" width="20" height="20" as="geometry"/>
                </mxCell>
                <mxCell id="4" value="n" style="text;html=1;align=center;verticalAlign=middle;resizable=0;points=[];autosize=1;strokeColor=none;fillColor=none;fontFamily=Courier New;sketch=1;" vertex="1" parent="1">
                    <mxGeometry x="520" y="60" width="20" height="20" as="geometry"/>
                </mxCell>
                <mxCell id="19" style="edgeStyle=none;html=1;dashed=1;fontFamily=Helvetica;fillColor=#f5f5f5;strokeColor=#666666;sketch=1;" edge="1" parent="1" source="6">
                    <mxGeometry relative="1" as="geometry">
                        <mxPoint x="230" y="70" as="targetPoint"/>
                    </mxGeometry>
                </mxCell>
                <mxCell id="6" value="&lt;font face=&quot;Courier New&quot;&gt;g&lt;/font&gt;" style="text;html=1;align=center;verticalAlign=middle;resizable=0;points=[];autosize=1;strokeColor=none;fillColor=none;sketch=1;" vertex="1" parent="1">
                    <mxGeometry x="180" y="60" width="20" height="20" as="geometry"/>
                </mxCell>
                <mxCell id="18" style="edgeStyle=none;html=1;fontFamily=Helvetica;fillColor=#f5f5f5;strokeColor=#666666;dashed=1;sketch=1;" edge="1" parent="1" source="7">
                    <mxGeometry relative="1" as="geometry">
                        <mxPoint x="330" y="70" as="targetPoint"/>
                    </mxGeometry>
                </mxCell>
                <mxCell id="7" value="&lt;font face=&quot;Courier New&quot;&gt;d&lt;/font&gt;" style="text;html=1;align=center;verticalAlign=middle;resizable=0;points=[];autosize=1;strokeColor=none;fillColor=none;sketch=1;" vertex="1" parent="1">
                    <mxGeometry x="360" y="60" width="20" height="20" as="geometry"/>
                </mxCell>
                <mxCell id="8" value="" style="whiteSpace=wrap;html=1;fontFamily=Courier New;sketch=1;" vertex="1" parent="1">
                    <mxGeometry x="180" y="80" width="200" height="20" as="geometry"/>
                </mxCell>
                <mxCell id="9" value="$$val &amp;lt; elem$$" style="text;html=1;align=center;verticalAlign=middle;resizable=0;points=[];autosize=1;strokeColor=none;fillColor=none;fontFamily=Helvetica;sketch=1;" vertex="1" parent="1">
                    <mxGeometry x="80" y="80" width="100" height="20" as="geometry"/>
                </mxCell>
                <mxCell id="10" value="$$val &amp;gt; elem$$" style="text;html=1;align=center;verticalAlign=middle;resizable=0;points=[];autosize=1;strokeColor=none;fillColor=none;fontFamily=Helvetica;sketch=1;" vertex="1" parent="1">
                    <mxGeometry x="390" y="80" width="100" height="20" as="geometry"/>
                </mxCell>
                <mxCell id="13" value="&lt;font face=&quot;Courier New&quot;&gt;i_med&lt;/font&gt;" style="text;html=1;align=center;verticalAlign=middle;resizable=0;points=[];autosize=1;strokeColor=none;fillColor=none;fontStyle=1;sketch=1;" vertex="1" parent="1">
                    <mxGeometry x="245" y="100" width="50" height="20" as="geometry"/>
                </mxCell>
                <mxCell id="17" value="" style="whiteSpace=wrap;html=1;fontFamily=Courier New;fillColor=#ffe6cc;strokeColor=#d79b00;sketch=1;" vertex="1" parent="1">
                    <mxGeometry x="260" y="80" width="20" height="20" as="geometry"/>
                </mxCell>
            </root>
        </mxGraphModel>
    </diagram>
</mxfile>